<svg xmlns="http://www.w3.org/2000/svg" xmlns:xlink="http://www.w3.org/1999/xlink" zoomAndPan="magnify" viewBox="0 0 222.75 86.249997" preserveAspectRatio="xMidYMid meet" version="1.0"><defs><g/><clipPath id="d813527b0a"><path d="M 180 21 L 201 21 L 201 43 L 180 43 Z M 180 21 " clipRule="nonzero"/></clipPath><clipPath id="9321b76ad6"><path d="M 175.925781 24.792969 L 190.667969 11.167969 L 210.855469 33.007812 L 196.113281 46.632812 Z M 175.925781 24.792969 " clipRule="nonzero"/></clipPath><clipPath id="3e9c4a9477"><path d="M 175.925781 24.792969 L 190.667969 11.167969 L 210.855469 33.007812 L 196.113281 46.632812 Z M 175.925781 24.792969 " clipRule="nonzero"/></clipPath><clipPath id="96cccd1e94"><path d="M 190 11 L 212 11 L 212 33 L 190 33 Z M 190 11 " clipRule="nonzero"/></clipPath><clipPath id="880f2d5817"><path d="M 186.503906 15.015625 L 201.246094 1.390625 L 221.433594 23.230469 L 206.691406 36.855469 Z M 186.503906 15.015625 " clipRule="nonzero"/></clipPath><clipPath id="9a3ae8b6c9"><path d="M 186.503906 15.015625 L 201.246094 1.390625 L 221.433594 23.230469 L 206.691406 36.855469 Z M 186.503906 15.015625 " clipRule="nonzero"/></clipPath></defs><g clipPath="url(#d813527b0a)"><g clipPath="url(#9321b76ad6)"><g clipPath="url(#3e9c4a9477)"><path fill="#1677ff" d="M 200.914062 22.355469 L 183.046875 21.5625 C 179.597656 21.40625 179.011719 28.132812 183.101562 28.242188 L 194.222656 28.542969 L 193.371094 39.730469 C 193.113281 43.136719 199.757812 43.5 199.949219 40.035156 Z M 200.914062 22.355469 " fillOpacity="1" fillRule="nonzero"/></g></g></g><g clipPath="url(#96cccd1e94)"><g clipPath="url(#880f2d5817)"><g clipPath="url(#9a3ae8b6c9)"><path fill="#1677ff" d="M 211.496094 12.578125 L 193.625 11.785156 C 190.175781 11.628906 189.589844 18.355469 193.679688 18.464844 L 204.800781 18.765625 L 203.949219 29.953125 C 203.691406 33.359375 210.335938 33.722656 210.527344 30.257812 Z M 211.496094 12.578125 " fillOpacity="1" fillRule="nonzero"/></g></g></g><g fill="#373643" fillOpacity="1"><g transform="translate(13.536936, 60.872009)"><g><path d="M 0.375 -8.03125 C 0.125 -9.0625 0.367188 -9.875 1.109375 -10.46875 C 1.859375 -11.070312 2.691406 -11.375 3.609375 -11.375 C 4.328125 -11.375 4.957031 -11.207031 5.5 -10.875 C 6.050781 -10.539062 6.398438 -10.019531 6.546875 -9.3125 C 6.929688 -8.175781 7.664062 -7.296875 8.75 -6.671875 C 9.832031 -6.054688 11.046875 -5.628906 12.390625 -5.390625 C 13.734375 -5.160156 14.992188 -5.046875 16.171875 -5.046875 C 17.085938 -5.046875 18.09375 -5.117188 19.1875 -5.265625 C 20.289062 -5.410156 21.335938 -5.664062 22.328125 -6.03125 C 23.328125 -6.40625 24.144531 -6.925781 24.78125 -7.59375 C 25.425781 -8.269531 25.75 -9.144531 25.75 -10.21875 C 25.75 -11.34375 25.273438 -12.171875 24.328125 -12.703125 C 23.390625 -13.242188 22.191406 -13.628906 20.734375 -13.859375 C 19.285156 -14.085938 17.765625 -14.253906 16.171875 -14.359375 C 14.359375 -14.503906 12.539062 -14.71875 10.71875 -15 C 8.894531 -15.28125 7.226562 -15.738281 5.71875 -16.375 C 4.207031 -17.019531 2.988281 -17.953125 2.0625 -19.171875 C 1.144531 -20.398438 0.6875 -22.023438 0.6875 -24.046875 C 0.6875 -25.847656 1.144531 -27.40625 2.0625 -28.71875 C 2.988281 -30.03125 4.195312 -31.101562 5.6875 -31.9375 C 7.175781 -32.769531 8.789062 -33.390625 10.53125 -33.796875 C 12.269531 -34.203125 13.972656 -34.40625 15.640625 -34.40625 C 17.484375 -34.40625 19.414062 -34.191406 21.4375 -33.765625 C 23.457031 -33.347656 25.304688 -32.597656 26.984375 -31.515625 C 28.671875 -30.429688 29.925781 -28.914062 30.75 -26.96875 C 31.03125 -25.976562 30.820312 -25.15625 30.125 -24.5 C 29.4375 -23.84375 28.628906 -23.515625 27.703125 -23.515625 C 27.140625 -23.515625 26.597656 -23.644531 26.078125 -23.90625 C 25.566406 -24.175781 25.207031 -24.539062 25 -25 C 24.570312 -26.09375 23.828125 -26.90625 22.765625 -27.4375 C 21.703125 -27.976562 20.53125 -28.328125 19.25 -28.484375 C 17.976562 -28.640625 16.789062 -28.71875 15.6875 -28.71875 C 14.976562 -28.71875 14.132812 -28.644531 13.15625 -28.5 C 12.1875 -28.363281 11.238281 -28.117188 10.3125 -27.765625 C 9.394531 -27.410156 8.625 -26.921875 8 -26.296875 C 7.382812 -25.679688 7.078125 -24.910156 7.078125 -23.984375 C 7.078125 -22.847656 7.519531 -21.992188 8.40625 -21.421875 C 9.289062 -20.859375 10.46875 -20.472656 11.9375 -20.265625 C 13.40625 -20.054688 15.007812 -19.878906 16.75 -19.734375 C 18.59375 -19.554688 20.425781 -19.351562 22.25 -19.125 C 24.082031 -18.894531 25.742188 -18.484375 27.234375 -17.890625 C 28.722656 -17.304688 29.910156 -16.421875 30.796875 -15.234375 C 31.679688 -14.046875 32.125 -12.390625 32.125 -10.265625 C 32.125 -8.140625 31.617188 -6.382812 30.609375 -5 C 29.597656 -3.613281 28.273438 -2.515625 26.640625 -1.703125 C 25.015625 -0.890625 23.28125 -0.316406 21.4375 0.015625 C 19.59375 0.359375 17.835938 0.53125 16.171875 0.53125 C 14.785156 0.53125 13.273438 0.394531 11.640625 0.125 C 10.015625 -0.132812 8.429688 -0.59375 6.890625 -1.25 C 5.347656 -1.90625 3.988281 -2.78125 2.8125 -3.875 C 1.644531 -4.976562 0.832031 -6.363281 0.375 -8.03125 Z M 0.375 -8.03125 "/></g></g></g><g fill="#373643" fillOpacity="1"><g transform="translate(45.874968, 60.872009)"><g><path d="M 24.734375 -27.078125 C 25.648438 -27.078125 26.382812 -26.816406 26.9375 -26.296875 C 27.488281 -25.785156 27.765625 -25.125 27.765625 -24.3125 L 27.765625 -2.765625 C 27.765625 -1.953125 27.488281 -1.285156 26.9375 -0.765625 C 26.382812 -0.253906 25.648438 0 24.734375 0 C 23.847656 0 23.15625 -0.203125 22.65625 -0.609375 C 22.15625 -1.015625 21.851562 -1.554688 21.75 -2.234375 C 20.550781 -1.273438 19.207031 -0.570312 17.71875 -0.125 C 16.226562 0.3125 14.804688 0.53125 13.453125 0.53125 C 10.898438 0.53125 8.691406 -0.0507812 6.828125 -1.21875 C 4.972656 -2.394531 3.546875 -4.046875 2.546875 -6.171875 C 1.554688 -8.296875 1.0625 -10.773438 1.0625 -13.609375 C 1.0625 -16.378906 1.609375 -18.8125 2.703125 -20.90625 C 3.804688 -23 5.34375 -24.640625 7.3125 -25.828125 C 9.28125 -27.015625 11.554688 -27.609375 14.140625 -27.609375 C 15.273438 -27.609375 16.535156 -27.394531 17.921875 -26.96875 C 19.304688 -26.539062 20.582031 -25.863281 21.75 -24.9375 C 21.894531 -25.582031 22.210938 -26.097656 22.703125 -26.484375 C 23.203125 -26.878906 23.878906 -27.078125 24.734375 -27.078125 Z M 14.09375 -4.84375 C 15.65625 -4.84375 17.160156 -5.1875 18.609375 -5.875 C 20.066406 -6.570312 21.097656 -7.59375 21.703125 -8.9375 L 21.703125 -18.140625 C 21.023438 -19.453125 20.007812 -20.460938 18.65625 -21.171875 C 17.3125 -21.878906 15.953125 -22.234375 14.578125 -22.234375 C 12.335938 -22.234375 10.535156 -21.414062 9.171875 -19.78125 C 7.804688 -18.15625 7.125 -16.082031 7.125 -13.5625 C 7.125 -10.9375 7.757812 -8.828125 9.03125 -7.234375 C 10.3125 -5.640625 12 -4.84375 14.09375 -4.84375 Z M 14.09375 -4.84375 "/></g></g></g><g fill="#373643" fillOpacity="1"><g transform="translate(76.617347, 60.872009)"><g><path d="M 7.921875 -2.65625 C 7.921875 -1.945312 7.628906 -1.328125 7.046875 -0.796875 C 6.460938 -0.265625 5.742188 0 4.890625 0 C 4.003906 0 3.273438 -0.265625 2.703125 -0.796875 C 2.140625 -1.328125 1.859375 -1.945312 1.859375 -2.65625 L 1.859375 -31.75 C 1.859375 -32.457031 2.140625 -33.078125 2.703125 -33.609375 C 3.273438 -34.140625 4.003906 -34.40625 4.890625 -34.40625 C 5.742188 -34.40625 6.460938 -34.140625 7.046875 -33.609375 C 7.628906 -33.078125 7.921875 -32.457031 7.921875 -31.75 Z M 7.921875 -2.65625 "/></g></g></g><g fill="#373643" fillOpacity="1"><g transform="translate(85.339757, 60.872009)"><g><path d="M 15.21875 -4.734375 C 16.238281 -4.734375 17.242188 -4.875 18.234375 -5.15625 C 19.234375 -5.4375 20.160156 -5.914062 21.015625 -6.59375 C 21.828125 -7.34375 22.625 -7.6875 23.40625 -7.625 C 24.1875 -7.570312 24.832031 -7.289062 25.34375 -6.78125 C 25.851562 -6.269531 26.109375 -5.628906 26.109375 -4.859375 C 26.109375 -4.097656 25.738281 -3.363281 25 -2.65625 C 23.757812 -1.445312 22.285156 -0.601562 20.578125 -0.125 C 18.878906 0.34375 17.144531 0.5625 15.375 0.53125 C 12.601562 0.53125 10.160156 -0.0351562 8.046875 -1.171875 C 5.941406 -2.304688 4.296875 -3.882812 3.109375 -5.90625 C 1.921875 -7.925781 1.328125 -10.265625 1.328125 -12.921875 C 1.328125 -15.828125 1.894531 -18.378906 3.03125 -20.578125 C 4.164062 -22.773438 5.769531 -24.492188 7.84375 -25.734375 C 9.914062 -26.984375 12.375 -27.609375 15.21875 -27.609375 C 18.050781 -27.609375 20.457031 -27.03125 22.4375 -25.875 C 24.425781 -24.71875 25.941406 -23.101562 26.984375 -21.03125 C 28.035156 -18.957031 28.5625 -16.539062 28.5625 -13.78125 C 28.5625 -12.894531 28.382812 -12.140625 28.03125 -11.515625 C 27.675781 -10.890625 26.734375 -10.578125 25.203125 -10.578125 L 7.5 -10.578125 C 8 -8.847656 8.9375 -7.441406 10.3125 -6.359375 C 11.695312 -5.273438 13.332031 -4.734375 15.21875 -4.734375 Z M 15.265625 -22.34375 C 13.210938 -22.34375 11.492188 -21.691406 10.109375 -20.390625 C 8.722656 -19.097656 7.835938 -17.40625 7.453125 -15.3125 L 22.921875 -15.3125 C 22.742188 -17.40625 22.050781 -19.097656 20.84375 -20.390625 C 19.644531 -21.691406 17.785156 -22.34375 15.265625 -22.34375 Z M 15.265625 -22.34375 "/></g></g></g><g fill="#373643" fillOpacity="1"><g transform="translate(116.241704, 60.872009)"><g><path d="M 28.828125 -31.0625 C 28.828125 -32.019531 29.15625 -32.726562 29.8125 -33.1875 C 30.46875 -33.644531 31.1875 -33.875 31.96875 -33.875 C 32.78125 -33.875 33.492188 -33.644531 34.109375 -33.1875 C 34.734375 -32.726562 35.046875 -32.035156 35.046875 -31.109375 L 35.046875 -14.953125 C 35.046875 -11.859375 34.378906 -9.148438 33.046875 -6.828125 C 31.722656 -4.503906 29.863281 -2.695312 27.46875 -1.40625 C 25.070312 -0.113281 22.265625 0.53125 19.046875 0.53125 C 15.847656 0.53125 13.039062 -0.113281 10.625 -1.40625 C 8.21875 -2.695312 6.347656 -4.503906 5.015625 -6.828125 C 3.691406 -9.148438 3.03125 -11.859375 3.03125 -14.953125 L 3.03125 -31.21875 C 3.03125 -32.101562 3.347656 -32.765625 3.984375 -33.203125 C 4.628906 -33.648438 5.335938 -33.875 6.109375 -33.875 C 6.929688 -33.875 7.671875 -33.648438 8.328125 -33.203125 C 8.984375 -32.765625 9.3125 -32.085938 9.3125 -31.171875 L 9.3125 -14.953125 C 9.3125 -12.003906 10.195312 -9.613281 11.96875 -7.78125 C 13.738281 -5.957031 16.078125 -5.046875 18.984375 -5.046875 C 21.929688 -5.046875 24.304688 -5.957031 26.109375 -7.78125 C 27.921875 -9.613281 28.828125 -12.003906 28.828125 -14.953125 Z M 28.828125 -31.0625 "/></g></g></g><g fill="#373643" fillOpacity="1"><g transform="translate(154.590015, 60.872009)"><g><path d="M 16.28125 -27.609375 C 18.90625 -27.609375 21.195312 -27.03125 23.15625 -25.875 C 25.125 -24.71875 26.648438 -23.101562 27.734375 -21.03125 C 28.816406 -18.957031 29.359375 -16.554688 29.359375 -13.828125 C 29.359375 -10.992188 28.816406 -8.492188 27.734375 -6.328125 C 26.648438 -4.160156 25.148438 -2.472656 23.234375 -1.265625 C 21.328125 -0.0664062 19.078125 0.53125 16.484375 0.53125 C 15.285156 0.53125 13.972656 0.316406 12.546875 -0.109375 C 11.128906 -0.535156 9.835938 -1.140625 8.671875 -1.921875 L 8.671875 6.21875 C 8.671875 7.101562 8.359375 7.773438 7.734375 8.234375 C 7.117188 8.703125 6.4375 8.9375 5.6875 8.9375 C 4.90625 8.9375 4.203125 8.703125 3.578125 8.234375 C 2.960938 7.773438 2.65625 7.101562 2.65625 6.21875 L 2.65625 -24.359375 C 2.65625 -25.210938 2.929688 -25.878906 3.484375 -26.359375 C 4.035156 -26.835938 4.789062 -27.078125 5.75 -27.078125 C 7.34375 -27.078125 8.28125 -26.453125 8.5625 -25.203125 C 9.800781 -26.097656 11.09375 -26.722656 12.4375 -27.078125 C 13.789062 -27.429688 15.070312 -27.609375 16.28125 -27.609375 Z M 16.328125 -4.84375 C 18.421875 -4.84375 20.101562 -5.664062 21.375 -7.3125 C 22.65625 -8.957031 23.296875 -11.113281 23.296875 -13.78125 C 23.296875 -16.289062 22.613281 -18.328125 21.25 -19.890625 C 19.882812 -21.453125 18.082031 -22.234375 15.84375 -22.234375 C 14.425781 -22.234375 13.046875 -21.867188 11.703125 -21.140625 C 10.359375 -20.410156 9.347656 -19.375 8.671875 -18.03125 L 8.671875 -9.203125 C 9.234375 -7.816406 10.238281 -6.742188 11.6875 -5.984375 C 13.144531 -5.222656 14.691406 -4.84375 16.328125 -4.84375 Z M 16.328125 -4.84375 "/></g></g></g></svg>