<svg xmlns="http://www.w3.org/2000/svg" xmlns:xlink="http://www.w3.org/1999/xlink" width="500" zoomAndPan="magnify" viewBox="0 0 375 374.999991" height="500" preserveAspectRatio="xMidYMid meet" version="1.0"><defs><clipPath id="3a53e5816a"><path d="M 37.5 100.875 L 337.5 100.875 L 337.5 274.125 L 37.5 274.125 Z M 37.5 100.875 " clipRule="nonzero"/></clipPath></defs><g clipPath="url(#3a53e5816a)"><path fill="#1677ff" d="M 37.550781 208.867188 L 37.605469 206.914062 L 37.742188 205.085938 C 38.105469 200.207031 39.023438 195.335938 40.460938 190.601562 C 41.886719 185.859375 43.878906 181.269531 46.332031 176.929688 C 48.800781 172.597656 51.738281 168.511719 55.089844 164.769531 C 58.453125 161.046875 62.203125 157.640625 66.320312 154.695312 C 70.441406 151.761719 74.878906 149.230469 79.570312 147.238281 C 84.257812 145.246094 89.167969 143.71875 94.199219 142.785156 C 99.230469 141.84375 104.351562 141.429688 109.472656 141.570312 C 111.179688 141.621094 112.890625 141.738281 114.597656 141.914062 C 115.136719 141.09375 115.683594 140.277344 116.25 139.476562 C 118.671875 136.046875 121.335938 132.796875 124.203125 129.726562 C 127.066406 126.660156 130.15625 123.800781 133.425781 121.160156 C 136.695312 118.523438 140.132812 116.085938 143.742188 113.933594 C 147.347656 111.769531 151.101562 109.851562 154.96875 108.195312 C 158.84375 106.550781 162.832031 105.183594 166.890625 104.089844 C 170.949219 102.984375 175.085938 102.191406 179.246094 101.679688 C 183.410156 101.164062 187.597656 100.925781 191.777344 100.996094 L 194.703125 101.09375 L 196.339844 101.195312 L 198.011719 101.304688 C 199.097656 101.394531 200.101562 101.515625 201.148438 101.621094 C 202.1875 101.734375 203.222656 101.898438 204.257812 102.046875 C 208.382812 102.691406 212.464844 103.617188 216.460938 104.8125 C 220.453125 106.019531 224.355469 107.511719 228.128906 109.25 C 231.902344 110.984375 235.535156 113.011719 239.015625 115.246094 C 242.5 117.480469 245.796875 119.980469 248.917969 122.664062 C 252.039062 125.347656 254.949219 128.261719 257.648438 131.339844 C 261.503906 135.738281 264.890625 140.511719 267.773438 145.550781 C 270.304688 145.332031 272.839844 145.253906 275.359375 145.308594 C 276.011719 145.328125 276.667969 145.355469 277.320312 145.390625 L 277.378906 145.394531 C 277.339844 145.394531 277.832031 145.402344 277.636719 145.398438 L 277.664062 145.402344 L 277.769531 145.410156 L 277.980469 145.429688 L 279.257812 145.546875 L 280.105469 145.621094 C 280.398438 145.648438 280.640625 145.664062 281.011719 145.714844 L 283.078125 145.976562 C 284.488281 146.125 285.707031 146.402344 286.996094 146.640625 C 287.632812 146.75 288.265625 146.910156 288.894531 147.0625 L 290.78125 147.523438 C 292.03125 147.867188 293.269531 148.238281 294.496094 148.625 L 296.320312 149.269531 C 296.929688 149.488281 297.535156 149.699219 298.125 149.957031 C 299.316406 150.449219 300.507812 150.921875 301.65625 151.488281 L 303.390625 152.3125 L 305.078125 153.222656 C 307.328125 154.425781 309.46875 155.800781 311.546875 157.238281 C 312.566406 157.988281 313.582031 158.746094 314.566406 159.527344 L 316.015625 160.738281 L 316.734375 161.34375 L 317.433594 161.976562 L 318.804688 163.253906 C 319.265625 163.683594 319.691406 164.144531 320.128906 164.585938 C 320.5625 165.035156 321.011719 165.464844 321.425781 165.933594 L 322.667969 167.324219 L 323.28125 168.023438 L 323.863281 168.75 L 325.019531 170.203125 C 325.765625 171.191406 326.480469 172.199219 327.1875 173.203125 C 328.542969 175.261719 329.847656 177.335938 330.9375 179.519531 C 331.214844 180.0625 331.496094 180.601562 331.757812 181.148438 L 332.503906 182.8125 C 333.023438 183.90625 333.429688 185.050781 333.875 186.167969 C 334.105469 186.726562 334.28125 187.304688 334.476562 187.871094 L 335.042969 189.582031 C 335.351562 190.746094 335.691406 191.886719 335.957031 193.054688 C 336.199219 194.222656 336.496094 195.371094 336.667969 196.546875 L 336.957031 198.296875 C 337.046875 198.878906 337.089844 199.472656 337.15625 200.058594 C 337.210938 200.644531 337.285156 201.226562 337.332031 201.808594 L 337.421875 203.570312 C 337.519531 204.730469 337.476562 205.90625 337.472656 207.066406 C 337.476562 207.644531 337.445312 208.226562 337.410156 208.804688 L 337.308594 210.535156 C 337.199219 211.6875 337.050781 212.828125 336.90625 213.964844 C 336.691406 212.832031 336.53125 211.703125 336.300781 210.589844 L 335.9375 208.929688 C 335.824219 208.375 335.703125 207.824219 335.546875 207.285156 C 335.242188 206.195312 334.984375 205.109375 334.625 204.046875 L 334.125 202.457031 C 333.945312 201.929688 333.738281 201.414062 333.550781 200.890625 C 333.351562 200.375 333.179688 199.855469 332.957031 199.34375 L 332.316406 197.820312 C 331.917969 196.800781 331.394531 195.828125 330.933594 194.847656 C 330.457031 193.867188 329.90625 192.921875 329.398438 191.96875 C 328.820312 191.050781 328.3125 190.105469 327.714844 189.203125 C 327.109375 188.316406 326.550781 187.402344 325.894531 186.554688 L 324.945312 185.269531 C 324.617188 184.851562 324.273438 184.441406 323.9375 184.03125 C 322.613281 182.375 321.175781 180.824219 319.703125 179.335938 C 318.945312 178.613281 318.183594 177.890625 317.40625 177.203125 L 315.625 175.691406 L 315.003906 175.214844 L 313.78125 174.265625 C 313.378906 173.949219 312.945312 173.667969 312.527344 173.363281 C 312.101562 173.074219 311.695312 172.761719 311.261719 172.484375 L 309.964844 171.660156 L 309.320312 171.246094 L 308.65625 170.863281 L 307.332031 170.097656 C 306.441406 169.613281 305.535156 169.15625 304.632812 168.703125 C 302.796875 167.851562 300.960938 167.039062 299.066406 166.398438 L 297.648438 165.910156 L 296.21875 165.484375 C 295.277344 165.179688 294.300781 164.96875 293.34375 164.730469 C 292.871094 164.601562 292.382812 164.511719 291.898438 164.421875 L 290.445312 164.140625 C 289.476562 163.984375 288.503906 163.84375 287.535156 163.714844 L 286.074219 163.578125 C 285.585938 163.527344 285.101562 163.472656 284.613281 163.464844 C 283.652344 163.4375 282.628906 163.34375 281.773438 163.378906 L 280.441406 163.378906 C 280.25 163.375 279.929688 163.394531 279.652344 163.40625 L 278.800781 163.4375 L 277.953125 163.472656 L 277.523438 163.488281 L 277.207031 163.5 L 277.179688 163.5 C 276.964844 163.5 277.4375 163.507812 277.382812 163.507812 L 277.339844 163.511719 C 276.855469 163.550781 276.378906 163.589844 275.894531 163.644531 C 273.976562 163.847656 272.082031 164.136719 270.21875 164.546875 C 268.355469 164.957031 266.523438 165.464844 264.730469 166.058594 L 257.851562 168.347656 L 253.378906 161.097656 C 250.070312 155.730469 246.085938 150.84375 241.582031 146.570312 C 239.335938 144.429688 236.945312 142.457031 234.460938 140.632812 C 231.972656 138.808594 229.367188 137.179688 226.6875 135.699219 C 224.007812 134.222656 221.226562 132.953125 218.394531 131.84375 C 215.566406 130.738281 212.667969 129.835938 209.726562 129.121094 C 206.789062 128.398438 203.8125 127.875 200.8125 127.558594 C 200.058594 127.492188 199.3125 127.398438 198.5625 127.347656 C 197.816406 127.304688 197.03125 127.238281 196.324219 127.207031 L 194.242188 127.148438 L 191.777344 127.15625 C 188.757812 127.234375 185.753906 127.476562 182.789062 127.925781 C 179.824219 128.375 176.898438 129.027344 174.027344 129.847656 C 171.15625 130.671875 168.34375 131.699219 165.609375 132.898438 C 162.871094 134.089844 160.210938 135.464844 157.65625 137.015625 C 155.109375 138.574219 152.636719 140.265625 150.300781 142.136719 C 147.964844 144.003906 145.757812 146.035156 143.667969 148.179688 C 141.585938 150.332031 139.652344 152.632812 137.871094 155.042969 C 136.078125 157.445312 134.449219 159.972656 133 162.597656 L 127.851562 171.914062 L 118.007812 169.15625 C 114.847656 168.269531 111.601562 167.671875 108.300781 167.457031 C 104.996094 167.246094 101.65625 167.316406 98.375 167.777344 C 95.089844 168.234375 91.835938 168.992188 88.695312 170.121094 C 85.550781 171.246094 82.492188 172.667969 79.609375 174.429688 C 76.730469 176.199219 74.007812 178.261719 71.523438 180.605469 C 69.03125 182.941406 66.757812 185.542969 64.773438 188.367188 C 64.261719 189.0625 63.820312 189.804688 63.332031 190.523438 C 62.875 191.253906 62.445312 192.007812 62 192.753906 C 61.605469 193.527344 61.179688 194.285156 60.792969 195.066406 C 60.441406 195.859375 60.027344 196.636719 59.699219 197.441406 C 58.320312 200.652344 57.277344 204.027344 56.570312 207.507812 L 56.304688 208.820312 L 56.121094 210.019531 C 56.058594 210.433594 55.984375 210.792969 55.925781 211.253906 L 55.785156 212.832031 L 55.710938 213.617188 L 55.675781 214.015625 L 55.667969 214.113281 L 55.664062 214.160156 C 55.660156 214.382812 55.664062 213.917969 55.664062 213.976562 L 55.65625 214.148438 L 55.589844 215.496094 C 55.570312 215.945312 55.523438 216.398438 55.53125 216.847656 L 55.535156 218.203125 C 55.542969 221.816406 55.933594 225.449219 56.691406 229.042969 C 57.449219 232.636719 58.605469 236.179688 60.132812 239.601562 C 61.644531 243.023438 63.523438 246.34375 65.761719 249.445312 C 68.015625 252.539062 70.539062 255.515625 73.441406 258.144531 C 76.335938 260.777344 79.496094 263.210938 82.949219 265.253906 L 84.242188 266.03125 L 85.574219 266.75 C 86.019531 266.988281 86.457031 267.25 86.914062 267.460938 L 88.285156 268.121094 C 89.199219 268.582031 90.148438 268.941406 91.089844 269.347656 L 91.796875 269.652344 L 92.519531 269.917969 L 93.96875 270.457031 C 94.449219 270.648438 94.945312 270.792969 95.4375 270.949219 L 96.921875 271.417969 C 97.917969 271.714844 98.929688 271.96875 99.941406 272.246094 C 100.953125 272.492188 101.976562 272.683594 103.011719 272.925781 L 106.160156 273.476562 C 105.101562 273.613281 104.042969 273.738281 102.984375 273.855469 C 101.917969 273.925781 100.835938 273.992188 99.753906 274.03125 C 98.679688 274.03125 97.589844 274.074219 96.503906 274.027344 L 94.878906 273.9375 C 94.335938 273.90625 93.785156 273.882812 93.246094 273.820312 C 91.070312 273.617188 88.890625 273.304688 86.730469 272.835938 L 85.109375 272.480469 C 84.566406 272.367188 84.039062 272.203125 83.5 272.0625 L 81.886719 271.625 C 81.355469 271.457031 80.828125 271.28125 80.296875 271.101562 C 76.070312 269.667969 71.925781 267.804688 68.039062 265.429688 C 67.074219 264.824219 66.125 264.195312 65.164062 263.570312 C 64.242188 262.898438 63.296875 262.246094 62.386719 261.542969 C 60.574219 260.132812 58.804688 258.640625 57.15625 257.015625 C 53.835938 253.785156 50.816406 250.183594 48.210938 246.253906 C 47.875 245.769531 47.566406 245.269531 47.265625 244.757812 L 46.347656 243.246094 C 45.746094 242.226562 45.207031 241.171875 44.636719 240.128906 C 44.113281 239.0625 43.609375 237.988281 43.109375 236.902344 C 42.65625 235.804688 42.175781 234.707031 41.757812 233.589844 C 40.066406 229.113281 38.882812 224.417969 38.203125 219.632812 L 37.964844 217.832031 C 37.878906 217.230469 37.851562 216.628906 37.796875 216.027344 L 37.648438 214.210938 L 37.578125 212.367188 L 37.515625 210.785156 C 37.511719 210.191406 37.539062 209.507812 37.550781 208.867188 " fillOpacity="1" fillRule="nonzero"/></g></svg>